# Blender v2.78 (sub 0) OBJ File: ''
# www.blender.org
mtllib MuzzleFlash2.mtl
o Cylinder.003_Cylinder.004
v -0.069476 -0.040112 0.043022
v -0.058643 -0.033858 0.018799
v -0.060021 -0.031191 0.019059
v -0.061102 -0.028487 0.019829
v -0.061846 -0.025849 0.021078
v -0.062224 -0.023378 0.022759
v -0.062221 -0.021170 0.024808
v -0.061837 -0.019309 0.027146
v -0.061088 -0.017866 0.029682
v -0.060002 -0.016898 0.032319
v -0.058620 -0.016442 0.034957
v -0.056996 -0.016514 0.037493
v -0.055193 -0.017112 0.039831
v -0.053279 -0.018214 0.041880
v -0.051328 -0.019776 0.043561
v -0.049415 -0.021740 0.044810
v -0.047614 -0.024028 0.045580
v -0.045993 -0.026554 0.045839
v -0.044616 -0.029221 0.045580
v -0.043535 -0.031925 0.044810
v -0.042791 -0.034563 0.043561
v -0.042413 -0.037034 0.041880
v -0.042416 -0.039242 0.039831
v -0.042800 -0.041103 0.037493
v -0.043549 -0.042546 0.034957
v -0.044635 -0.043514 0.032319
v -0.046017 -0.043971 0.029682
v -0.047640 -0.043898 0.027146
v -0.049444 -0.043300 0.024808
v -0.051358 -0.042198 0.022759
v -0.053309 -0.040636 0.021078
v -0.055222 -0.038672 0.019829
v -0.057023 -0.036384 0.019059
v -0.005587 -0.003226 0.003170
v -0.000526 -0.000304 0.117557
v 0.069476 -0.040112 0.043022
v 0.058643 -0.033858 0.018799
v 0.057023 -0.036384 0.019059
v 0.055222 -0.038673 0.019829
v 0.053309 -0.040636 0.021078
v 0.051358 -0.042198 0.022759
v 0.049444 -0.043300 0.024808
v 0.047640 -0.043898 0.027146
v 0.046017 -0.043971 0.029682
v 0.044635 -0.043514 0.032319
v 0.043549 -0.042546 0.034957
v 0.042800 -0.041103 0.037493
v 0.042416 -0.039242 0.039831
v 0.042413 -0.037034 0.041880
v 0.042791 -0.034563 0.043561
v 0.043535 -0.031925 0.044810
v 0.044616 -0.029221 0.045580
v 0.045993 -0.026554 0.045839
v 0.047614 -0.024028 0.045580
v 0.049415 -0.021740 0.044810
v 0.051328 -0.019776 0.043561
v 0.053279 -0.018214 0.041880
v 0.055193 -0.017112 0.039831
v 0.056996 -0.016514 0.037493
v 0.058620 -0.016442 0.034957
v 0.060002 -0.016898 0.032319
v 0.061088 -0.017866 0.029682
v 0.061837 -0.019309 0.027146
v 0.062221 -0.021170 0.024808
v 0.062224 -0.023378 0.022759
v 0.061846 -0.025849 0.021078
v 0.061102 -0.028487 0.019829
v 0.060021 -0.031191 0.019059
v 0.005587 -0.003226 0.003170
v 0.000526 -0.000304 0.117557
v 0.000000 0.080224 0.043022
v 0.000000 0.067716 0.018799
v 0.002998 0.067575 0.019059
v 0.005881 0.067160 0.019829
v 0.008537 0.066485 0.021078
v 0.010866 0.065576 0.022759
v 0.012777 0.064470 0.024808
v 0.014197 0.063207 0.027146
v 0.015071 0.061837 0.029682
v 0.015367 0.060412 0.032319
v 0.015071 0.058987 0.034957
v 0.014197 0.057617 0.037493
v 0.012777 0.056355 0.039831
v 0.010866 0.055248 0.041880
v 0.008537 0.054339 0.043561
v 0.005881 0.053665 0.044810
v 0.002998 0.053249 0.045580
v 0.000000 0.053109 0.045839
v -0.002998 0.053249 0.045580
v -0.005881 0.053665 0.044810
v -0.008537 0.054339 0.043561
v -0.010866 0.055248 0.041880
v -0.012777 0.056355 0.039831
v -0.014197 0.057617 0.037493
v -0.015071 0.058987 0.034957
v -0.015367 0.060412 0.032319
v -0.015071 0.061837 0.029682
v -0.014197 0.063207 0.027146
v -0.012777 0.064470 0.024808
v -0.010866 0.065576 0.022759
v -0.008537 0.066485 0.021078
v -0.005881 0.067160 0.019829
v -0.002998 0.067575 0.019059
v 0.000000 0.006451 0.003170
v 0.000000 0.000607 0.117557
v 0.000000 0.000000 0.216433
v 0.000000 0.039364 0.158751
v 0.007680 0.038608 0.158751
v 0.015064 0.036368 0.158751
v 0.021870 0.032730 0.158751
v 0.027835 0.027835 0.158751
v 0.032730 0.021870 0.158751
v 0.036368 0.015064 0.158751
v 0.038608 0.007680 0.158751
v 0.039364 0.000000 0.158751
v 0.038608 -0.007680 0.158751
v 0.036368 -0.015064 0.158751
v 0.032730 -0.021870 0.158751
v 0.027835 -0.027835 0.158751
v 0.021870 -0.032730 0.158751
v 0.015064 -0.036368 0.158751
v 0.007680 -0.038608 0.158751
v -0.000000 -0.039364 0.158751
v -0.007680 -0.038608 0.158751
v -0.015064 -0.036368 0.158751
v -0.021870 -0.032730 0.158751
v -0.027835 -0.027835 0.158751
v -0.032730 -0.021870 0.158751
v -0.036368 -0.015064 0.158751
v -0.038608 -0.007680 0.158751
v -0.039364 0.000000 0.158751
v -0.038608 0.007680 0.158751
v -0.036368 0.015064 0.158751
v -0.032730 0.021870 0.158751
v -0.027835 0.027835 0.158751
v -0.021870 0.032730 0.158751
v -0.015064 0.036368 0.158751
v -0.007680 0.038608 0.158751
v 0.000000 0.000000 0.001640
vt 0.6538 0.3437
vt 0.3075 0.3776
vt 0.3075 0.3098
vt 0.3208 0.2434
vt 0.3469 0.1809
vt 0.3848 0.1246
vt 0.4331 0.0767
vt 0.4898 0.0391
vt 0.5528 0.0132
vt 0.6197 0.0000
vt 0.6879 0.0000
vt 0.7548 0.0132
vt 0.8178 0.0391
vt 0.8745 0.0767
vt 0.9227 0.1246
vt 0.9606 0.1809
vt 0.9867 0.2435
vt 1.0000 0.3099
vt 1.0000 0.3776
vt 0.9867 0.4440
vt 0.9606 0.5065
vt 0.9227 0.5628
vt 0.8745 0.6107
vt 0.8178 0.6483
vt 0.7548 0.6742
vt 0.6879 0.6874
vt 0.6197 0.6874
vt 0.5528 0.6742
vt 0.4898 0.6483
vt 0.4331 0.6107
vt 0.3848 0.5628
vt 0.1709 0.5354
vt 0.2166 0.5263
vt 0.2399 0.7626
vt 0.3208 0.4440
vt 0.3469 0.5065
vt 0.0304 0.8745
vt 0.0126 0.8315
vt 0.4234 0.9133
vt 0.3905 0.9462
vt 0.3518 0.5532
vt 0.3905 0.5790
vt 0.0126 0.6937
vt 0.0304 0.6507
vt 0.2631 0.9989
vt 0.2166 0.9989
vt 0.1709 0.9898
vt 0.4671 0.6937
vt 0.4762 0.7393
vt 0.1279 0.5532
vt 0.0563 0.9133
vt 0.4493 0.8745
vt 0.3088 0.5354
vt 0.0035 0.7393
vt 0.3088 0.9898
vt 0.4493 0.6507
vt 0.0892 0.5790
vt 0.0892 0.9462
vt 0.4671 0.8315
vt 0.2631 0.5263
vt 0.0035 0.7859
vt 0.3518 0.9720
vt 0.4234 0.6120
vt 0.0563 0.6120
vt 0.1279 0.9720
vt 0.4762 0.7859
vt 0.6538 0.3437
vt 0.3208 0.2435
vt 0.3469 0.1809
vt 0.3848 0.1246
vt 0.4330 0.0767
vt 0.4898 0.0391
vt 0.5528 0.0132
vt 0.6197 0.0000
vt 0.6879 0.0000
vt 0.7548 0.0132
vt 0.8178 0.0391
vt 0.8745 0.0767
vt 0.9227 0.1246
vt 0.9606 0.1809
vt 0.9867 0.2435
vt 1.0000 0.3099
vt 1.0000 0.3776
vt 0.9867 0.4440
vt 0.9606 0.5065
vt 0.9227 0.5628
vt 0.8745 0.6107
vt 0.8178 0.6483
vt 0.7548 0.6742
vt 0.6879 0.6874
vt 0.6197 0.6874
vt 0.5528 0.6742
vt 0.4898 0.6483
vt 0.4330 0.6107
vt 0.3848 0.5628
vt 0.3469 0.5065
vt 0.3208 0.4440
vt 0.4763 0.7858
vt 0.4672 0.8314
vt 0.2400 0.7625
vt 0.3075 0.3099
vt 0.3075 0.3776
vt 0.2167 0.5262
vt 0.2632 0.5262
vt 0.0305 0.8744
vt 0.0127 0.8314
vt 0.3906 0.9461
vt 0.3519 0.9719
vt 0.3906 0.5789
vt 0.4235 0.6118
vt 0.0127 0.6936
vt 0.0305 0.6505
vt 0.0564 0.6118
vt 0.2167 0.9988
vt 0.1710 0.9897
vt 0.4763 0.7392
vt 0.1710 0.5352
vt 0.0564 0.9131
vt 0.4235 0.9131
vt 0.3519 0.5531
vt 0.0037 0.7392
vt 0.2632 0.9988
vt 0.4672 0.6936
vt 0.1280 0.5531
vt 0.0893 0.9461
vt 0.4494 0.8744
vt 0.3089 0.5352
vt 0.0037 0.7858
vt 0.3089 0.9897
vt 0.4494 0.6505
vt 0.0893 0.5789
vt 0.1280 0.9719
vt 0.6538 0.3437
vt 0.9227 0.5628
vt 0.8745 0.6107
vt 0.8178 0.6483
vt 0.7547 0.6742
vt 0.6879 0.6874
vt 0.6197 0.6874
vt 0.5528 0.6742
vt 0.4898 0.6483
vt 0.4330 0.6107
vt 0.3848 0.5628
vt 0.3469 0.5065
vt 0.3208 0.4440
vt 0.3075 0.3776
vt 0.3075 0.3099
vt 0.3208 0.2434
vt 0.3469 0.1809
vt 0.3848 0.1246
vt 0.4331 0.0767
vt 0.4898 0.0391
vt 0.5528 0.0132
vt 0.6197 0.0000
vt 0.6879 0.0000
vt 0.7548 0.0132
vt 0.8178 0.0391
vt 0.8745 0.0767
vt 0.9227 0.1246
vt 0.9606 0.1809
vt 0.9867 0.2435
vt 1.0000 0.3099
vt 1.0000 0.3776
vt 0.0563 0.9133
vt 0.0304 0.8745
vt 0.2399 0.7626
vt 0.9606 0.5065
vt 0.9867 0.4440
vt 0.4234 0.9133
vt 0.3905 0.9462
vt 0.3088 0.5354
vt 0.3518 0.5532
vt 0.0035 0.7393
vt 0.0126 0.6937
vt 0.2631 0.9989
vt 0.2166 0.9989
vt 0.4493 0.6507
vt 0.4671 0.6937
vt 0.4762 0.7393
vt 0.0892 0.5790
vt 0.1279 0.5532
vt 0.0892 0.9462
vt 0.4493 0.8745
vt 0.2631 0.5263
vt 0.0035 0.7859
vt 0.3088 0.9898
vt 0.4234 0.6120
vt 0.0563 0.6120
vt 0.1279 0.9720
vt 0.4671 0.8315
vt 0.2166 0.5263
vt 0.0126 0.8315
vt 0.3518 0.9720
vt 0.3905 0.5790
vt 0.0304 0.6507
vt 0.1709 0.9898
vt 0.4762 0.7859
vt 0.1709 0.5354
vt 0.6538 0.3437
vt 0.3469 0.5065
vt 0.3208 0.4440
vt 0.3075 0.3776
vt 0.3075 0.3099
vt 0.3208 0.2435
vt 0.3469 0.1809
vt 0.3848 0.1246
vt 0.4331 0.0767
vt 0.4898 0.0391
vt 0.5528 0.0132
vt 0.6197 0.0000
vt 0.6879 0.0000
vt 0.7548 0.0132
vt 0.8178 0.0391
vt 0.8745 0.0767
vt 0.9227 0.1246
vt 0.9606 0.1809
vt 0.9867 0.2434
vt 1.0000 0.3099
vt 1.0000 0.3776
vt 0.9867 0.4440
vt 0.9606 0.5065
vt 0.9227 0.5628
vt 0.8745 0.6107
vt 0.8178 0.6483
vt 0.7548 0.6742
vt 0.6879 0.6874
vt 0.6197 0.6874
vt 0.5528 0.6742
vt 0.4898 0.6483
vt 0.1710 0.9897
vt 0.1280 0.9719
vt 0.2400 0.7625
vt 0.3848 0.5628
vt 0.4330 0.6107
vt 0.4763 0.7858
vt 0.4672 0.8314
vt 0.1710 0.5352
vt 0.2167 0.5262
vt 0.0305 0.8744
vt 0.0127 0.8314
vt 0.3906 0.9461
vt 0.3519 0.9719
vt 0.3519 0.5531
vt 0.3906 0.5789
vt 0.4235 0.6118
vt 0.0127 0.6936
vt 0.0305 0.6505
vt 0.2167 0.9988
vt 0.4763 0.7392
vt 0.1280 0.5531
vt 0.0564 0.9131
vt 0.4235 0.9131
vt 0.3089 0.5352
vt 0.0037 0.7392
vt 0.2632 0.9988
vt 0.4672 0.6936
vt 0.0893 0.5789
vt 0.0893 0.9461
vt 0.4494 0.8744
vt 0.2632 0.5262
vt 0.0037 0.7858
vt 0.3089 0.9897
vt 0.4494 0.6505
vt 0.0564 0.6118
vn -0.4322 0.4613 -0.7749
vn -0.4440 0.6097 -0.6566
vn -0.4318 0.7388 -0.5174
vn -0.3958 0.8436 -0.3628
vn -0.3376 0.9201 -0.1987
vn -0.2593 0.9653 -0.0313
vn -0.1640 0.9775 0.1328
vn -0.0552 0.9562 0.2874
vn 0.0627 0.9023 0.4266
vn 0.1853 0.8178 0.5449
vn 0.3079 0.7059 0.6379
vn 0.4257 0.5710 0.7019
vn 0.5342 0.4183 0.7346
vn 0.6294 0.2535 0.7346
vn 0.7074 0.0832 0.7019
vn 0.7653 -0.0863 0.6379
vn 0.8008 -0.2484 0.5449
vn 0.8127 -0.3968 0.4266
vn 0.8005 -0.5259 0.2874
vn 0.7645 -0.6307 0.1328
vn 0.7063 -0.7072 -0.0313
vn 0.6280 -0.7524 -0.1987
vn 0.5327 -0.7646 -0.3628
vn 0.4239 -0.7433 -0.5174
vn 0.3060 -0.6894 -0.6566
vn 0.1834 -0.6049 -0.7749
vn 0.0608 -0.4930 -0.8679
vn -0.0570 -0.3581 -0.9319
vn -0.1656 -0.2054 -0.9646
vn 0.0178 -0.2670 0.9635
vn -0.3966 0.2992 -0.8679
vn -0.3387 0.1297 -0.9319
vn -0.2238 -0.9717 -0.0761
vn -0.9638 0.1819 -0.1947
vn -0.3228 0.2639 0.9089
vn 0.0666 -0.8757 0.4783
vn -0.8075 -0.3726 -0.4573
vn -0.7264 -0.5130 -0.4573
vn -0.7251 0.4955 0.4783
vn 0.0672 -0.4115 0.9089
vn -0.3244 -0.9257 -0.1947
vn -0.9534 0.2920 -0.0761
vn -0.2223 0.1489 0.9635
vn 0.0169 -0.9409 0.3384
vn -0.8740 -0.2273 -0.4295
vn -0.6324 0.4773 0.6101
vn 0.0975 -0.5497 0.8297
vn -0.4289 -0.8536 -0.2956
vn -0.9227 0.3813 0.0557
vn -0.1298 0.0187 0.9914
vn -0.0498 -0.9794 0.1957
vn -0.9234 -0.0828 -0.3749
vn -0.5318 0.4314 0.7288
vn 0.1077 -0.6762 0.7288
vn -0.5334 -0.7583 -0.3749
vn -0.8731 0.4466 0.1957
vn -0.0487 -0.1217 0.9914
vn -0.1311 -0.9898 0.0557
vn -0.9537 0.0554 -0.2956
vn -0.4273 0.3593 0.8297
vn 0.0972 -0.7863 0.6101
vn -0.6339 -0.6432 -0.4295
vn -0.8063 0.4851 0.3384
vn -0.2607 -0.0407 -0.9646
vn -0.1834 -0.6049 -0.7749
vn -0.3060 -0.6894 -0.6566
vn -0.4239 -0.7433 -0.5174
vn -0.5327 -0.7646 -0.3628
vn -0.6280 -0.7524 -0.1987
vn -0.7063 -0.7072 -0.0313
vn -0.7645 -0.6307 0.1328
vn -0.8005 -0.5259 0.2874
vn -0.8127 -0.3968 0.4266
vn -0.8008 -0.2484 0.5449
vn -0.7653 -0.0863 0.6379
vn -0.7074 0.0832 0.7019
vn -0.6294 0.2535 0.7346
vn -0.5343 0.4183 0.7346
vn -0.4257 0.5710 0.7019
vn -0.3079 0.7059 0.6379
vn -0.1853 0.8178 0.5449
vn -0.0627 0.9023 0.4266
vn 0.0552 0.9562 0.2874
vn 0.1640 0.9775 0.1328
vn 0.2593 0.9653 -0.0313
vn 0.3376 0.9201 -0.1987
vn 0.3958 0.8436 -0.3628
vn 0.4318 0.7388 -0.5174
vn 0.4440 0.6097 -0.6566
vn 0.4322 0.4613 -0.7749
vn 0.3966 0.2992 -0.8679
vn 0.3387 0.1297 -0.9319
vn 0.2607 -0.0407 -0.9646
vn 0.2223 0.1489 0.9635
vn -0.0608 -0.4930 -0.8679
vn 0.0570 -0.3581 -0.9319
vn 0.9534 0.2920 -0.0761
vn 0.3244 -0.9257 -0.1947
vn -0.0672 -0.4115 0.9089
vn 0.7251 0.4955 0.4783
vn 0.7264 -0.5130 -0.4573
vn 0.8075 -0.3726 -0.4573
vn -0.0666 -0.8757 0.4783
vn 0.3228 0.2639 0.9089
vn 0.9638 0.1819 -0.1947
vn 0.2238 -0.9717 -0.0761
vn -0.0178 -0.2670 0.9635
vn 0.8063 0.4851 0.3384
vn 0.6339 -0.6433 -0.4295
vn -0.0972 -0.7863 0.6101
vn 0.4273 0.3593 0.8297
vn 0.9537 0.0554 -0.2956
vn 0.1311 -0.9898 0.0557
vn 0.0487 -0.1217 0.9914
vn 0.8731 0.4465 0.1957
vn 0.5334 -0.7583 -0.3749
vn -0.1077 -0.6762 0.7288
vn 0.5318 0.4314 0.7288
vn 0.9234 -0.0828 -0.3749
vn 0.0498 -0.9794 0.1957
vn 0.1298 0.0187 0.9914
vn 0.9227 0.3814 0.0557
vn 0.4289 -0.8536 -0.2956
vn -0.0975 -0.5497 0.8297
vn 0.6324 0.4773 0.6101
vn 0.8740 -0.2273 -0.4295
vn -0.0169 -0.9409 0.3384
vn 0.1656 -0.2054 -0.9646
vn 0.6155 0.1436 -0.7749
vn 0.7500 0.0797 -0.6566
vn 0.8557 0.0045 -0.5174
vn 0.9285 -0.0790 -0.3628
vn 0.9656 -0.1677 -0.1987
vn 0.9656 -0.2581 -0.0313
vn 0.9285 -0.3467 0.1328
vn 0.8557 -0.4303 0.2874
vn 0.7500 -0.5054 0.4266
vn 0.6155 -0.5693 0.5449
vn 0.4574 -0.6196 0.6379
vn 0.2817 -0.6542 0.7019
vn 0.0951 -0.6718 0.7346
vn -0.0951 -0.6718 0.7346
vn -0.2817 -0.6542 0.7019
vn -0.4574 -0.6196 0.6379
vn -0.6155 -0.5693 0.5449
vn -0.7500 -0.5054 0.4266
vn -0.8557 -0.4303 0.2874
vn -0.9285 -0.3467 0.1328
vn -0.9656 -0.2581 -0.0313
vn -0.9656 -0.1677 -0.1987
vn -0.9285 -0.0790 -0.3628
vn -0.8557 0.0045 -0.5174
vn -0.7500 0.0797 -0.6566
vn -0.6155 0.1436 -0.7749
vn -0.4574 0.1938 -0.8679
vn -0.2817 0.2284 -0.9319
vn -0.0951 0.2461 -0.9646
vn -0.2401 0.1181 0.9635
vn 0.4574 0.1938 -0.8679
vn 0.2817 0.2284 -0.9319
vn -0.7296 0.6797 -0.0761
vn 0.6395 0.7437 -0.1947
vn 0.3900 0.1476 0.9089
vn -0.7916 0.3802 0.4783
vn 0.0811 0.8856 -0.4573
vn -0.0811 0.8856 -0.4573
vn 0.7916 0.3802 0.4783
vn -0.3900 0.1476 0.9089
vn -0.6395 0.7437 -0.1947
vn 0.7296 0.6797 -0.0761
vn 0.2401 0.1181 0.9635
vn -0.8233 0.4558 0.3384
vn 0.2401 0.8706 -0.4295
vn 0.7296 0.3090 0.6101
vn -0.5248 0.1904 0.8297
vn -0.5248 0.7982 -0.2956
vn 0.7916 0.6084 0.0557
vn 0.0811 0.1030 0.9914
vn -0.8233 0.5329 0.1957
vn 0.3900 0.8411 -0.3749
vn 0.6395 0.2449 0.7288
vn -0.6395 0.2449 0.7288
vn -0.3900 0.8411 -0.3749
vn 0.8233 0.5329 0.1957
vn -0.0811 0.1030 0.9914
vn -0.7916 0.6084 0.0557
vn 0.5248 0.7982 -0.2956
vn 0.5248 0.1904 0.8297
vn -0.7296 0.3090 0.6101
vn -0.2401 0.8706 -0.4295
vn 0.8233 0.4558 0.3384
vn 0.0951 0.2461 -0.9646
vn 0.6155 0.7500 -0.2419
vn 0.7500 0.6155 -0.2419
vn 0.8557 0.4574 -0.2419
vn 0.9285 0.2817 -0.2419
vn 0.9656 0.0951 -0.2419
vn 0.9656 -0.0951 -0.2419
vn 0.9285 -0.2817 -0.2419
vn 0.8557 -0.4574 -0.2419
vn 0.7500 -0.6155 -0.2419
vn 0.6155 -0.7500 -0.2419
vn 0.4574 -0.8557 -0.2419
vn 0.2817 -0.9285 -0.2419
vn 0.0951 -0.9656 -0.2419
vn -0.0951 -0.9656 -0.2419
vn -0.2817 -0.9285 -0.2419
vn -0.4574 -0.8557 -0.2419
vn -0.6155 -0.7500 -0.2419
vn -0.7500 -0.6155 -0.2419
vn -0.8557 -0.4574 -0.2419
vn -0.9285 -0.2817 -0.2419
vn -0.9656 -0.0951 -0.2419
vn -0.9656 0.0951 -0.2419
vn -0.9285 0.2817 -0.2419
vn -0.8557 0.4574 -0.2419
vn -0.7500 0.6155 -0.2419
vn -0.6155 0.7500 -0.2419
vn -0.4574 0.8557 -0.2419
vn -0.2817 0.9285 -0.2419
vn -0.0951 0.9656 -0.2419
vn -0.2401 -0.7916 0.5618
vn 0.4574 0.8557 -0.2419
vn 0.2817 0.9285 -0.2419
vn -0.7296 0.3900 0.5618
vn 0.6395 0.5248 0.5618
vn 0.3900 -0.7296 0.5618
vn -0.7916 -0.2401 0.5618
vn 0.0811 0.8233 0.5618
vn -0.0811 0.8233 0.5618
vn 0.7916 -0.2401 0.5618
vn -0.3900 -0.7296 0.5618
vn -0.6395 0.5248 0.5618
vn 0.7296 0.3900 0.5618
vn 0.2401 -0.7916 0.5618
vn -0.8233 -0.0811 0.5618
vn 0.2401 0.7916 0.5618
vn 0.7296 -0.3900 0.5618
vn -0.5248 -0.6395 0.5618
vn -0.5248 0.6395 0.5618
vn 0.7916 0.2401 0.5618
vn 0.0811 -0.8233 0.5618
vn -0.8233 0.0811 0.5618
vn 0.3900 0.7296 0.5618
vn 0.6395 -0.5248 0.5618
vn -0.6395 -0.5248 0.5618
vn -0.3900 0.7296 0.5618
vn 0.8233 0.0811 0.5618
vn -0.0811 -0.8233 0.5618
vn -0.7916 0.2401 0.5618
vn 0.5248 0.6395 0.5618
vn 0.5248 -0.6395 0.5618
vn -0.7296 -0.3900 0.5618
vn -0.2401 0.7916 0.5618
vn 0.8233 -0.0811 0.5618
vn 0.0951 0.9656 -0.2419
usemtl None
s off
f 34/1/1 5/2/1 6/3/1
f 34/1/2 6/3/2 7/4/2
f 34/1/3 7/4/3 8/5/3
f 34/1/4 8/5/4 9/6/4
f 34/1/5 9/6/5 10/7/5
f 34/1/6 10/7/6 11/8/6
f 34/1/7 11/8/7 12/9/7
f 34/1/8 12/9/8 13/10/8
f 34/1/9 13/10/9 14/11/9
f 34/1/10 14/11/10 15/12/10
f 34/1/11 15/12/11 16/13/11
f 34/1/12 16/13/12 17/14/12
f 34/1/13 17/14/13 18/15/13
f 34/1/14 18/15/14 19/16/14
f 34/1/15 19/16/15 20/17/15
f 34/1/16 20/17/16 21/18/16
f 34/1/17 21/18/17 22/19/17
f 34/1/18 22/19/18 23/20/18
f 34/1/19 23/20/19 24/21/19
f 34/1/20 24/21/20 25/22/20
f 34/1/21 25/22/21 26/23/21
f 34/1/22 26/23/22 27/24/22
f 34/1/23 27/24/23 28/25/23
f 34/1/24 28/25/24 29/26/24
f 34/1/25 29/26/25 30/27/25
f 34/1/26 30/27/26 31/28/26
f 34/1/27 31/28/27 32/29/27
f 34/1/28 32/29/28 33/30/28
f 34/1/29 33/30/29 2/31/29
f 20/32/30 19/33/30 1/34/30
f 34/1/31 4/35/31 5/2/31
f 34/1/32 3/36/32 4/35/32
f 29/37/33 28/38/33 1/34/33
f 7/39/34 6/40/34 1/34/34
f 16/41/35 15/42/35 1/34/35
f 25/43/36 24/44/36 1/34/36
f 3/45/37 2/46/37 1/34/37
f 2/46/38 33/47/38 1/34/38
f 12/48/39 11/49/39 1/34/39
f 21/50/40 20/32/40 1/34/40
f 30/51/41 29/37/41 1/34/41
f 8/52/42 7/39/42 1/34/42
f 17/53/43 16/41/43 1/34/43
f 26/54/44 25/43/44 1/34/44
f 4/55/45 3/45/45 1/34/45
f 13/56/46 12/48/46 1/34/46
f 22/57/47 21/50/47 1/34/47
f 31/58/48 30/51/48 1/34/48
f 9/59/49 8/52/49 1/34/49
f 18/60/50 17/53/50 1/34/50
f 27/61/51 26/54/51 1/34/51
f 5/62/52 4/55/52 1/34/52
f 14/63/53 13/56/53 1/34/53
f 23/64/54 22/57/54 1/34/54
f 32/65/55 31/58/55 1/34/55
f 10/66/56 9/59/56 1/34/56
f 19/33/57 18/60/57 1/34/57
f 28/38/58 27/61/58 1/34/58
f 6/40/59 5/62/59 1/34/59
f 15/42/60 14/63/60 1/34/60
f 24/44/61 23/64/61 1/34/61
f 33/47/62 32/65/62 1/34/62
f 11/49/63 10/66/63 1/34/63
f 34/1/64 2/31/64 3/36/64
f 69/67/65 40/68/65 41/69/65
f 69/67/66 41/69/66 42/70/66
f 69/67/67 42/70/67 43/71/67
f 69/67/68 43/71/68 44/72/68
f 69/67/69 44/72/69 45/73/69
f 69/67/70 45/73/70 46/74/70
f 69/67/71 46/74/71 47/75/71
f 69/67/72 47/75/72 48/76/72
f 69/67/73 48/76/73 49/77/73
f 69/67/74 49/77/74 50/78/74
f 69/67/75 50/78/75 51/79/75
f 69/67/76 51/79/76 52/80/76
f 69/67/77 52/80/77 53/81/77
f 69/67/78 53/81/78 54/82/78
f 69/67/79 54/82/79 55/83/79
f 69/67/80 55/83/80 56/84/80
f 69/67/81 56/84/81 57/85/81
f 69/67/82 57/85/82 58/86/82
f 69/67/83 58/86/83 59/87/83
f 69/67/84 59/87/84 60/88/84
f 69/67/85 60/88/85 61/89/85
f 69/67/86 61/89/86 62/90/86
f 69/67/87 62/90/87 63/91/87
f 69/67/88 63/91/88 64/92/88
f 69/67/89 64/92/89 65/93/89
f 69/67/90 65/93/90 66/94/90
f 69/67/91 66/94/91 67/95/91
f 69/67/92 67/95/92 68/96/92
f 69/67/93 68/96/93 37/97/93
f 55/98/94 54/99/94 36/100/94
f 69/67/95 39/101/95 40/68/95
f 69/67/96 38/102/96 39/101/96
f 64/103/97 63/104/97 36/100/97
f 42/105/98 41/106/98 36/100/98
f 51/107/99 50/108/99 36/100/99
f 60/109/100 59/110/100 36/100/100
f 38/111/101 37/112/101 36/100/101
f 37/112/102 68/113/102 36/100/102
f 47/114/103 46/115/103 36/100/103
f 56/116/104 55/98/104 36/100/104
f 65/117/105 64/103/105 36/100/105
f 43/118/106 42/105/106 36/100/106
f 52/119/107 51/107/107 36/100/107
f 61/120/108 60/109/108 36/100/108
f 39/121/109 38/111/109 36/100/109
f 48/122/110 47/114/110 36/100/110
f 57/123/111 56/116/111 36/100/111
f 66/124/112 65/117/112 36/100/112
f 44/125/113 43/118/113 36/100/113
f 53/126/114 52/119/114 36/100/114
f 62/127/115 61/120/115 36/100/115
f 40/128/116 39/121/116 36/100/116
f 49/129/117 48/122/117 36/100/117
f 58/130/118 57/123/118 36/100/118
f 67/131/119 66/124/119 36/100/119
f 45/132/120 44/125/120 36/100/120
f 54/99/121 53/126/121 36/100/121
f 63/104/122 62/127/122 36/100/122
f 41/106/123 40/128/123 36/100/123
f 50/108/124 49/129/124 36/100/124
f 59/110/125 58/130/125 36/100/125
f 68/113/126 67/131/126 36/100/126
f 46/115/127 45/132/127 36/100/127
f 69/67/128 37/97/128 38/102/128
f 104/133/129 75/134/129 76/135/129
f 104/133/130 76/135/130 77/136/130
f 104/133/131 77/136/131 78/137/131
f 104/133/132 78/137/132 79/138/132
f 104/133/133 79/138/133 80/139/133
f 104/133/134 80/139/134 81/140/134
f 104/133/135 81/140/135 82/141/135
f 104/133/136 82/141/136 83/142/136
f 104/133/137 83/142/137 84/143/137
f 104/133/138 84/143/138 85/144/138
f 104/133/139 85/144/139 86/145/139
f 104/133/140 86/145/140 87/146/140
f 104/133/141 87/146/141 88/147/141
f 104/133/142 88/147/142 89/148/142
f 104/133/143 89/148/143 90/149/143
f 104/133/144 90/149/144 91/150/144
f 104/133/145 91/150/145 92/151/145
f 104/133/146 92/151/146 93/152/146
f 104/133/147 93/152/147 94/153/147
f 104/133/148 94/153/148 95/154/148
f 104/133/149 95/154/149 96/155/149
f 104/133/150 96/155/150 97/156/150
f 104/133/151 97/156/151 98/157/151
f 104/133/152 98/157/152 99/158/152
f 104/133/153 99/158/153 100/159/153
f 104/133/154 100/159/154 101/160/154
f 104/133/155 101/160/155 102/161/155
f 104/133/156 102/161/156 103/162/156
f 104/133/157 103/162/157 72/163/157
f 90/164/158 89/165/158 71/166/158
f 104/133/159 74/167/159 75/134/159
f 104/133/160 73/168/160 74/167/160
f 99/169/161 98/170/161 71/166/161
f 77/171/162 76/172/162 71/166/162
f 86/173/163 85/174/163 71/166/163
f 95/175/164 94/176/164 71/166/164
f 73/177/165 72/178/165 71/166/165
f 72/178/166 103/179/166 71/166/166
f 82/180/167 81/181/167 71/166/167
f 91/182/168 90/164/168 71/166/168
f 100/183/169 99/169/169 71/166/169
f 78/184/170 77/171/170 71/166/170
f 87/185/171 86/173/171 71/166/171
f 96/186/172 95/175/172 71/166/172
f 74/187/173 73/177/173 71/166/173
f 83/188/174 82/180/174 71/166/174
f 92/189/175 91/182/175 71/166/175
f 101/190/176 100/183/176 71/166/176
f 79/191/177 78/184/177 71/166/177
f 88/192/178 87/185/178 71/166/178
f 97/193/179 96/186/179 71/166/179
f 75/194/180 74/187/180 71/166/180
f 84/195/181 83/188/181 71/166/181
f 93/196/182 92/189/182 71/166/182
f 102/197/183 101/190/183 71/166/183
f 80/198/184 79/191/184 71/166/184
f 89/165/185 88/192/185 71/166/185
f 98/170/186 97/193/186 71/166/186
f 76/172/187 75/194/187 71/166/187
f 85/174/188 84/195/188 71/166/188
f 94/176/189 93/196/189 71/166/189
f 103/179/190 102/197/190 71/166/190
f 81/181/191 80/198/191 71/166/191
f 104/133/192 72/163/192 73/168/192
f 139/199/193 110/200/193 111/201/193
f 139/199/194 111/201/194 112/202/194
f 139/199/195 112/202/195 113/203/195
f 139/199/196 113/203/196 114/204/196
f 139/199/197 114/204/197 115/205/197
f 139/199/198 115/205/198 116/206/198
f 139/199/199 116/206/199 117/207/199
f 139/199/200 117/207/200 118/208/200
f 139/199/201 118/208/201 119/209/201
f 139/199/202 119/209/202 120/210/202
f 139/199/203 120/210/203 121/211/203
f 139/199/204 121/211/204 122/212/204
f 139/199/205 122/212/205 123/213/205
f 139/199/206 123/213/206 124/214/206
f 139/199/207 124/214/207 125/215/207
f 139/199/208 125/215/208 126/216/208
f 139/199/209 126/216/209 127/217/209
f 139/199/210 127/217/210 128/218/210
f 139/199/211 128/218/211 129/219/211
f 139/199/212 129/219/212 130/220/212
f 139/199/213 130/220/213 131/221/213
f 139/199/214 131/221/214 132/222/214
f 139/199/215 132/222/215 133/223/215
f 139/199/216 133/223/216 134/224/216
f 139/199/217 134/224/217 135/225/217
f 139/199/218 135/225/218 136/226/218
f 139/199/219 136/226/219 137/227/219
f 139/199/220 137/227/220 138/228/220
f 139/199/221 138/228/221 107/229/221
f 125/230/222 124/231/222 106/232/222
f 139/199/223 109/233/223 110/200/223
f 139/199/224 108/234/224 109/233/224
f 134/235/225 133/236/225 106/232/225
f 112/237/226 111/238/226 106/232/226
f 121/239/227 120/240/227 106/232/227
f 130/241/228 129/242/228 106/232/228
f 108/243/229 107/244/229 106/232/229
f 107/244/230 138/245/230 106/232/230
f 117/246/231 116/247/231 106/232/231
f 126/248/232 125/230/232 106/232/232
f 135/249/233 134/235/233 106/232/233
f 113/250/234 112/237/234 106/232/234
f 122/251/235 121/239/235 106/232/235
f 131/252/236 130/241/236 106/232/236
f 109/253/237 108/243/237 106/232/237
f 118/254/238 117/246/238 106/232/238
f 127/255/239 126/248/239 106/232/239
f 136/256/240 135/249/240 106/232/240
f 114/257/241 113/250/241 106/232/241
f 123/258/242 122/251/242 106/232/242
f 132/259/243 131/252/243 106/232/243
f 110/260/244 109/253/244 106/232/244
f 119/261/245 118/254/245 106/232/245
f 128/262/246 127/255/246 106/232/246
f 137/263/247 136/256/247 106/232/247
f 115/264/248 114/257/248 106/232/248
f 124/231/249 123/258/249 106/232/249
f 133/236/250 132/259/250 106/232/250
f 111/238/251 110/260/251 106/232/251
f 120/240/252 119/261/252 106/232/252
f 129/242/253 128/262/253 106/232/253
f 138/245/254 137/263/254 106/232/254
f 116/247/255 115/264/255 106/232/255
f 139/199/256 107/229/256 108/234/256
